# xmcd
#
# Track frame offsets: 
#        150
#        20643
#        30205
#        41804
#        57362
#        66440
#        77953
#        90021
#        102062
#        111784
#        124029
#        135722
#        147471
#        164372
#        185461
#        197035
#
# Disc length: 2835 seconds
#
# Revision: 0
# Processed by: cddbd v1.5.2PL0 Copyright (c) Steve Scherf et al.
# Submitted via: ExactAudioCopy v1.3
#
DISCID=d90b1110
DTITLE=Bar D Wranglers - 50 Years On The Trail
DYEAR=2018
DGENRE=Country
TTITLE0=The Wild And The Lonely
TTITLE1=Remember The Alamo
TTITLE2=Moving Slow
TTITLE3=The Same OK Range
TTITLE4=The Alpine Cowboy
TTITLE5=I'm My Own Grandpa
TTITLE6=16 Tons
TTITLE7=ACowboy Has To Sing
TTITLE8=The Possum Song
TTITLE9=I'm An Old Cowhand
TTITLE10=Texas Plains
TTITLE11=The Yellow Rose Of Texas
TTITLE12=The Strawberry Roan
TTITLE13=Old Matt Palmers Farm
TTITLE14=Around The Old Chuckwagon
TTITLE15=The Devil Went Down To Georgia
EXTD=
EXTT0=
EXTT1=
EXTT2=
EXTT3=
EXTT4=
EXTT5=
EXTT6=
EXTT7=
EXTT8=
EXTT9=
EXTT10=
EXTT11=
EXTT12=
EXTT13=
EXTT14=
EXTT15=
PLAYORDER=
